<svg xmlns="http://www.w3.org/2000/svg" viewBox="0 0 72.74 16"><defs><style>.cls-1{fill:#323031;}.cls-2{fill:#fdb933;}.cls-3{fill:#fff;}</style></defs><g id="Layer_2" data-name="Layer 2"><g id="Layer_1-2" data-name="Layer 1"><path class="cls-1" d="M19,10.27l.62-1.4a4.25,4.25,0,0,0,2.21.66c.78,0,1.08-.22,1.08-.54,0-1.06-3.79-.29-3.79-2.77,0-1.19,1-2.16,3-2.16a5,5,0,0,1,2.42.58L23.89,6A4,4,0,0,0,22,5.53c-.8,0-1.08.26-1.08.6,0,1,3.78.25,3.78,2.71,0,1.17-1,2.16-2.95,2.16A5.36,5.36,0,0,1,19,10.27Z"/><path class="cls-1" d="M25.2,8.27a2.72,2.72,0,0,1,3-2.66A2.43,2.43,0,0,1,30.59,7l-1.4.72A1.12,1.12,0,0,0,27,8.27a1.13,1.13,0,0,0,2.16.55l1.4.71A2.42,2.42,0,0,1,28.17,11,2.72,2.72,0,0,1,25.2,8.27Z"/><path class="cls-1" d="M36.76,7.91v3H35V8.21c0-.75-.32-1.06-.85-1.06s-1,.36-1,1.22v2.5H31.26V3.79h1.81V6.17a2.26,2.26,0,0,1,1.56-.56A2,2,0,0,1,36.76,7.91Z"/><path class="cls-1" d="M43.23,8.74H39.47a1.2,1.2,0,0,0,1.27.83,1.62,1.62,0,0,0,1.19-.45l1,1a2.79,2.79,0,0,1-2.21.84,2.73,2.73,0,0,1-3-2.68,2.67,2.67,0,0,1,2.84-2.66,2.59,2.59,0,0,1,2.77,2.68C43.26,8.42,43.24,8.6,43.23,8.74Zm-3.79-1h2.12A1,1,0,0,0,40.5,6.9,1,1,0,0,0,39.44,7.79Z"/><path class="cls-1" d="M49.59,3.79v7.08H47.87v-.52a1.87,1.87,0,0,1-1.52.6A2.51,2.51,0,0,1,43.8,8.27a2.5,2.5,0,0,1,2.55-2.66,1.86,1.86,0,0,1,1.43.54V3.79ZM47.81,8.27a1.09,1.09,0,1,0-2.17,0,1.09,1.09,0,1,0,2.17,0Z"/><path class="cls-1" d="M56.19,5.7v5.17H54.47v-.56a2.19,2.19,0,0,1-3.73-1.72V5.7h1.81V8.29c0,.8.32,1.12.86,1.12s1-.36,1-1.22V5.7Z"/><path class="cls-1" d="M57.36,3.79h1.81v7.08H57.36Z"/><path class="cls-1" d="M60.14,4.16a1,1,0,0,1,1.11-1,1,1,0,0,1,1.11.93,1.12,1.12,0,0,1-2.22,0Zm.2,1.54h1.82v5.17H60.34Z"/><path class="cls-1" d="M65.3,5.89h1.23V7.24H65.35v3.63H63.54V7.24h-.75V5.89h.75V5.75a1.94,1.94,0,0,1,2.15-2A2.52,2.52,0,0,1,66.9,4l-.45,1.28a1.16,1.16,0,0,0-.55-.15c-.38,0-.6.22-.6.67Z"/><path class="cls-1" d="M72.74,5.7l-2.23,5.38a2.3,2.3,0,0,1-2.33,1.72,2.47,2.47,0,0,1-1.49-.47l.63-1.26a1.22,1.22,0,0,0,.8.3.69.69,0,0,0,.7-.44L66.61,5.7h1.86l1.27,3.15L71,5.7Z"/><rect class="cls-2" width="16" height="16" rx="8"/><path class="cls-1" d="M8.71,3.84h2.75a.71.71,0,0,1,.71.71V7.29a.71.71,0,0,1-.71.71H8A0,0,0,0,1,8,8V4.55A.71.71,0,0,1,8.71,3.84Z"/><path class="cls-3" d="M4.55,8H8A0,0,0,0,1,8,8v3.45a.71.71,0,0,1-.71.71H4.55a.71.71,0,0,1-.71-.71V8.71A.71.71,0,0,1,4.55,8Z"/></g></g></svg>